<?xml version="1.0" encoding="UTF-8"?>
<svg width="700pt" height="700pt" version="1.1" viewBox="0 0 700 700" xmlns="http://www.w3.org/2000/svg">
 <path d="m148.77 17.535c-14.391 0-26.301 11.824-26.301 26.215v428.77h297.52v-428.44c0.57031-14.781-11.82-26.539-26.215-26.539zm17.5 34.93h209.98c4.8398 0.015625 8.7422 3.9609 8.7148 8.8008v87.516c0.26562 11.93-17.766 11.93-17.5 0v-78.801h-192.48v105.02h201.27c11.68 0 11.68 17.516 0 17.516l-209.98 0.003906c-4.8672 0.015625-8.8086-3.9336-8.7852-8.8008v-122.45c-0.027344-4.8672 3.918-8.8203 8.7852-8.8008zm397.23 98.062-35 26.215c-2.1914 1.6484-3.4805 4.2305-3.4883 6.9727v70.016c-0.027344 4.8398 3.875 8.7812 8.7148 8.8008h43.785v236.2c0 14.695-11.59 26.301-26.285 26.301h-43.734c-14.695 0-26.215-11.605-26.215-26.301v-139.96c0-24.086-19.715-43.801-43.801-43.801v17.516c14.695 0 26.301 11.59 26.301 26.285v139.96c0 24.086 19.629 43.801 43.715 43.801h43.734c24.086 0 43.801-19.715 43.801-43.801v-367.45c-0.003906-2.332-0.94141-4.5625-2.5977-6.2031l-43.715-43.801c-1.6641-1.7109-3.9531-2.668-6.3398-2.6484-7.875 0-11.742 9.5938-6.0664 15.055l41.203 41.203v13.895h-9.2031c-2.0234 0-3.5352 0.76953-4.8125 1.7422zm8.1367 15.688h5.8789v78.801h-35v-56.91zm-300.59 78.68c3.1094 0.097657 5.5977 1.4141 7.1797 3.5703 0 0 15.52 20.477 31.07 45.27 7.7773 12.398 15.582 25.898 21.566 38.707 5.9844 12.812 10.391 24.664 10.391 35.699 0 38.25-31.492 69.352-70 69.352s-70-31.098-70-69.352c0-13.418 6.3789-28.25 14.508-44.074 8.1289-15.824 18.375-32.156 27.359-45.613 6.3867-10.156 21.488-0.066406 14.543 9.7227-8.7617 13.121-18.707 29.035-26.336 43.887-7.6289 14.852-12.578 29.148-12.578 36.078 0 28.691 23.352 51.852 52.5 51.852 29.148 0 52.5-23.156 52.5-51.852 0-5.6992-3.25-16.523-8.75-28.301s-13.004-24.793-20.543-36.812c-15.074-24.035-30.18-44.008-30.18-44.008-4.3242-5.543-0.6875-13.676 6.7695-14.133zm20.473 114.38c4.9336-0.066406 8.9297 3.9883 8.8359 8.9219 0 15.574-12.957 28.488-29.121 28.488-11.68 0-11.68-17.516 0-17.516 7.8203 0 11.621-4.2031 11.621-10.973-0.09375-4.8672 3.7969-8.8789 8.6641-8.9219zm-178.21 130.74c-4.9492 0-8.3477 4.2148-8.3398 8.7148v35.016c-0.015626 4.8594 3.9258 8.8047 8.7852 8.7852h315.02c4.8359-0.015625 8.7344-3.9492 8.7148-8.7852v-35.016c-0.015624-4.8086-3.9062-8.6992-8.7148-8.7148z"/>
</svg>
